<?xml version="1.0" encoding="utf-8"?>
<!-- Generator: Adobe Illustrator 21.0.0, SVG Export Plug-In . SVG Version: 6.00 Build 0)  -->
<svg version="1.1" id="Layer_1" xmlns="http://www.w3.org/2000/svg" xmlns:xlink="http://www.w3.org/1999/xlink" x="0px" y="0px"
	 viewBox="0 0 42.5 42.5" style="enable-background:new 0 0 42.5 42.5;" xml:space="preserve">
<style type="text/css">
	.st0{fill:none;stroke:#475655;stroke-width:0.75;stroke-miterlimit:10;}
</style>
<title>icon_22</title>
<g id="Layer_2">
	<g id="Layer_6">
		<path class="st0" d="M13.6,19.3"/>
		<path class="st0" d="M23,13.6l8.2,23.2c0.2,0.5-0.1,1.1-0.6,1.2c-0.1,0-0.2,0.1-0.3,0.1H12.4c-0.5,0-1-0.4-1-1
			c0-0.1,0-0.2,0.1-0.3l7.9-22.9c0,0-2.6-3.6-3-5.8s1.2-5.8,4.8-5.8"/>
		<path class="st0" d="M22.9,13.9c0,0,2.6-3.6,3-5.8s-1.1-5.8-4.7-5.8"/>
		<path class="st0" d="M23.5,12.9l7.9-3c1.1-0.4,2.2,0.1,2.6,1.2c0.1,0.3,0.2,0.6,0.1,0.9l-1.5,16.9c0,0.3-0.3,0.6-0.6,0.5
			c-0.2,0-0.4-0.1-0.5-0.3L23,13.8"/>
		<path class="st0" d="M18.8,12.9l-7.9-3c-1-0.4-2.2,0.1-2.6,1.2c-0.1,0.3-0.2,0.6-0.1,0.9l1.6,16.9c0,0.3,0.3,0.6,0.6,0.5
			c0.2,0,0.4-0.1,0.5-0.3l8.5-15.2"/>
	</g>
</g>
</svg>
