<svg width="431" height="440" viewBox="0 0 431 440"
    xmlns="http://www.w3.org/2000/svg">
    <path pid="0" stroke-miterlimit="50" stroke-width="2" stroke="#cdcdcd" fill="none" d="M216.38.46c33.8 0 56.22 17.29 84.69 31.43 23.41 11.64 54 18.13 71.73 37.2 20.03 21.56 25.84 52.24 36.05 80.68 8.48 23.61 23.1 44.11 23.1 70.72 0 32.63-18.32 58.6-30.8 86.45-13.74 30.65-22.82 62.52-48.04 83.67-18.1 15.17-45.13 17.79-67.44 26.34-23.57 9.04-42.63 23.58-69.29 23.58-34 0-56.09-17.13-84.68-31.44-26.32-13.16-59.69-22.55-78.63-44.97-19.4-22.96-20.34-51-29.16-80.76-5.98-20.19-23.1-40.68-23.1-62.87 0-36.58 23.02-71.8 38.5-102.16 11.38-22.31 12.13-41.67 29.98-58.69 21.94-20.91 48.79-25.46 77.8-35.61C169.02 16.37 191.91.46 216.39.46z"></path>
    <path pid="0" stroke-miterlimit="50" stroke-width=".18" stroke="#bdbaba" fill="none" d="M221.1.86c34.66 0 57.66 17.72 86.86 32.23 24.02 11.93 55.4 18.58 73.58 38.13 20.54 22.1 26.5 53.55 36.97 82.71 8.7 24.2 23.69 45.22 23.69 72.5 0 33.45-18.79 60.07-31.59 88.62-14.1 31.42-23.4 64.1-49.27 85.78-18.56 15.55-46.28 18.23-69.17 27C268 437.09 248.45 452 221.11 452c-34.87 0-57.53-17.56-86.86-32.23-26.99-13.49-61.21-23.12-80.64-46.1-19.9-23.54-20.86-52.28-29.9-82.79-6.14-20.7-23.7-41.7-23.7-64.45 0-37.51 23.61-73.61 39.49-104.73 11.67-22.87 12.44-42.72 30.74-60.16 22.5-21.44 50.04-26.1 79.8-36.51C172.53 17.17 196.01.86 221.11.86z"></path>
    <path pid="0" stroke-miterlimit="50" stroke-width=".18" stroke="#bdbaba" fill="none" d="M230.98.99c36.06 0 59.99 18.42 90.36 33.5 24.99 12.4 57.63 19.31 76.55 39.65 21.37 22.97 27.57 55.67 38.46 85.98 9.05 25.16 24.65 47.01 24.65 75.37 0 34.77-19.54 62.45-32.86 92.13-14.66 32.67-24.35 66.64-51.26 89.18-19.31 16.17-48.15 18.96-71.97 28.07-25.15 9.63-45.48 25.13-73.93 25.13-36.28 0-59.85-18.25-90.37-33.5-28.07-14.03-63.68-24.04-83.9-47.94-20.7-24.47-21.7-54.35-31.1-86.06C19.21 280.97.96 259.14.96 235.49c0-38.99 24.56-76.52 41.07-108.87 12.15-23.79 12.95-44.42 32-62.56 23.4-22.28 52.05-27.13 83.01-37.95C180.44 17.94 204.87.99 230.98.99z"></path>
    <defs>
        <clipPath id="soul-of-brand-image-clip">
            <path id="soul-of-brand-image-clip-path" transform="translate(-90 -5636) scale(0.9569)" d="M312.38 5907.46c33.8 0 56.22 17.29 84.69 31.43 23.41 11.64 54 18.13 71.73 37.2 20.03 21.56 25.84 52.24 36.05 80.68 8.48 23.61 23.1 44.11 23.1 70.72 0 32.63-18.32 58.6-30.8 86.45-13.74 30.65-22.82 62.52-48.04 83.67-18.1 15.17-45.13 17.79-67.44 26.34-23.57 9.04-42.63 23.58-69.29 23.58-34 0-56.09-17.13-84.68-31.44-26.32-13.16-59.69-22.55-78.63-44.97-19.4-22.96-20.34-51-29.16-80.76-5.98-20.19-23.1-40.68-23.1-62.87 0-36.58 23.02-71.8 38.5-102.16 11.38-22.31 12.13-41.67 29.98-58.69 21.94-20.91 48.79-25.46 77.8-35.61 21.93-7.66 44.82-23.57 69.3-23.57z"></path>
        </clipPath>
    </defs>
    <image width="100%" height="101%" href="./directora.webp" clip-path="url(#soul-of-brand-image-clip)"></image>
</svg>