<svg xmlns="http://www.w3.org/2000/svg" viewBox="0 0 43.38 43.39"><defs><style>.cls-1{fill:none;stroke:#475655;stroke-miterlimit:10;stroke-width:0.75px;}</style></defs><title>icon_1_1</title><g id="Layer_2" data-name="Layer 2"><g id="Layer_6" data-name="Layer 6"><g id="Layer_2-2" data-name="Layer 2"><g id="Layer_2-2-2" data-name="Layer 2-2"><polyline class="cls-1" points="35.38 22 8.61 22 1.26 12.71 12.54 12.71"/><polyline class="cls-1" points="12.66 12.58 12.66 0.81 22 8.79"/><polyline class="cls-1" points="31.34 12.58 31.34 0.81 22 8.79"/><polyline class="cls-1" points="35.26 22 42.61 12.71 31.34 12.71"/><polyline class="cls-1" points="12.58 31.35 0.81 31.34 8.79 22"/><polyline class="cls-1" points="22 35.26 12.71 42.61 12.71 31.35"/><polyline class="cls-1" points="31.34 31.47 31.34 42.61 22 35.26"/><polyline class="cls-1" points="35.26 22.05 42.61 31.34 31.34 31.34"/><line class="cls-1" x1="22" y1="8.66" x2="22" y2="35.43"/><line class="cls-1" x1="31.47" y1="31.51" x2="12.54" y2="12.58"/><line class="cls-1" x1="12.54" y1="31.51" x2="31.47" y2="12.58"/></g></g></g></g></svg>